<mxfile host="app.diagrams.net" agent="Mozilla/5.0 (X11; Linux x86_64; rv:128.0) Gecko/20100101 Firefox/128.0" version="27.0.6">
  <diagram name="Page-1" id="YhZmTB8D2AJgFiOfn9OW">
    <mxGraphModel dx="865" dy="466" grid="1" gridSize="10" guides="1" tooltips="1" connect="1" arrows="1" fold="1" page="1" pageScale="1" pageWidth="850" pageHeight="1100" math="0" shadow="0">
      <root>
        <mxCell id="0" />
        <mxCell id="1" parent="0" />
        <mxCell id="ibe251x8pU3LB1l8r29n-1" value="" style="edgeStyle=orthogonalEdgeStyle;rounded=0;orthogonalLoop=1;jettySize=auto;html=1;" parent="1" source="ibe251x8pU3LB1l8r29n-2" target="ibe251x8pU3LB1l8r29n-3" edge="1">
          <mxGeometry relative="1" as="geometry" />
        </mxCell>
        <mxCell id="ibe251x8pU3LB1l8r29n-2" value="Front-end&lt;br&gt;(flutter)" style="ellipse;whiteSpace=wrap;html=1;" parent="1" vertex="1">
          <mxGeometry x="110" y="670" width="120" height="80" as="geometry" />
        </mxCell>
        <mxCell id="ibe251x8pU3LB1l8r29n-3" value="Back-end&lt;br&gt;(Java)" style="ellipse;whiteSpace=wrap;html=1;" parent="1" vertex="1">
          <mxGeometry x="362" y="670" width="120" height="80" as="geometry" />
        </mxCell>
        <mxCell id="ibe251x8pU3LB1l8r29n-4" value="Does method call work?" style="text;html=1;align=center;verticalAlign=middle;resizable=0;points=[];autosize=1;strokeColor=none;fillColor=none;" parent="1" vertex="1">
          <mxGeometry x="220" y="660" width="150" height="30" as="geometry" />
        </mxCell>
        <mxCell id="ibe251x8pU3LB1l8r29n-5" value="Backend.receiveRequest()?" style="text;html=1;align=center;verticalAlign=middle;resizable=0;points=[];autosize=1;strokeColor=none;fillColor=none;" parent="1" vertex="1">
          <mxGeometry x="210" y="730" width="170" height="30" as="geometry" />
        </mxCell>
        <mxCell id="wBI8qY5ApIL9d-a7ffJJ-3" value="" style="edgeStyle=orthogonalEdgeStyle;rounded=0;orthogonalLoop=1;jettySize=auto;html=1;" edge="1" parent="1" source="wBI8qY5ApIL9d-a7ffJJ-1" target="wBI8qY5ApIL9d-a7ffJJ-2">
          <mxGeometry relative="1" as="geometry" />
        </mxCell>
        <mxCell id="wBI8qY5ApIL9d-a7ffJJ-1" value="Start" style="ellipse;whiteSpace=wrap;html=1;aspect=fixed;" vertex="1" parent="1">
          <mxGeometry x="120" y="310" width="80" height="80" as="geometry" />
        </mxCell>
        <mxCell id="wBI8qY5ApIL9d-a7ffJJ-2" value="S1" style="ellipse;whiteSpace=wrap;html=1;aspect=fixed;" vertex="1" parent="1">
          <mxGeometry x="320" y="310" width="80" height="80" as="geometry" />
        </mxCell>
        <mxCell id="wBI8qY5ApIL9d-a7ffJJ-4" value="Created user1" style="text;html=1;align=center;verticalAlign=middle;resizable=0;points=[];autosize=1;strokeColor=none;fillColor=none;" vertex="1" parent="1">
          <mxGeometry x="210" y="318" width="100" height="30" as="geometry" />
        </mxCell>
        <mxCell id="wBI8qY5ApIL9d-a7ffJJ-8" value="" style="edgeStyle=orthogonalEdgeStyle;rounded=0;orthogonalLoop=1;jettySize=auto;html=1;" edge="1" parent="1" target="wBI8qY5ApIL9d-a7ffJJ-9">
          <mxGeometry relative="1" as="geometry">
            <mxPoint x="400" y="350" as="sourcePoint" />
          </mxGeometry>
        </mxCell>
        <mxCell id="wBI8qY5ApIL9d-a7ffJJ-12" value="" style="edgeStyle=orthogonalEdgeStyle;rounded=0;orthogonalLoop=1;jettySize=auto;html=1;" edge="1" parent="1" source="wBI8qY5ApIL9d-a7ffJJ-9" target="wBI8qY5ApIL9d-a7ffJJ-11">
          <mxGeometry relative="1" as="geometry" />
        </mxCell>
        <mxCell id="wBI8qY5ApIL9d-a7ffJJ-9" value="S2" style="ellipse;whiteSpace=wrap;html=1;aspect=fixed;" vertex="1" parent="1">
          <mxGeometry x="520" y="310" width="80" height="80" as="geometry" />
        </mxCell>
        <mxCell id="wBI8qY5ApIL9d-a7ffJJ-10" value="Created user2" style="text;html=1;align=center;verticalAlign=middle;resizable=0;points=[];autosize=1;strokeColor=none;fillColor=none;" vertex="1" parent="1">
          <mxGeometry x="410" y="318" width="100" height="30" as="geometry" />
        </mxCell>
        <mxCell id="wBI8qY5ApIL9d-a7ffJJ-15" value="" style="edgeStyle=orthogonalEdgeStyle;rounded=0;orthogonalLoop=1;jettySize=auto;html=1;" edge="1" parent="1" source="wBI8qY5ApIL9d-a7ffJJ-11" target="wBI8qY5ApIL9d-a7ffJJ-14">
          <mxGeometry relative="1" as="geometry" />
        </mxCell>
        <mxCell id="wBI8qY5ApIL9d-a7ffJJ-11" value="S3" style="ellipse;whiteSpace=wrap;html=1;aspect=fixed;" vertex="1" parent="1">
          <mxGeometry x="520" y="470" width="80" height="80" as="geometry" />
        </mxCell>
        <mxCell id="wBI8qY5ApIL9d-a7ffJJ-13" value="Added Music1" style="text;html=1;align=center;verticalAlign=middle;resizable=0;points=[];autosize=1;strokeColor=none;fillColor=none;" vertex="1" parent="1">
          <mxGeometry x="560" y="410" width="100" height="30" as="geometry" />
        </mxCell>
        <mxCell id="wBI8qY5ApIL9d-a7ffJJ-18" value="" style="edgeStyle=orthogonalEdgeStyle;rounded=0;orthogonalLoop=1;jettySize=auto;html=1;" edge="1" parent="1" source="wBI8qY5ApIL9d-a7ffJJ-14" target="wBI8qY5ApIL9d-a7ffJJ-17">
          <mxGeometry relative="1" as="geometry" />
        </mxCell>
        <mxCell id="wBI8qY5ApIL9d-a7ffJJ-14" value="S3" style="ellipse;whiteSpace=wrap;html=1;aspect=fixed;" vertex="1" parent="1">
          <mxGeometry x="320" y="470" width="80" height="80" as="geometry" />
        </mxCell>
        <mxCell id="wBI8qY5ApIL9d-a7ffJJ-16" value="user2 logged in" style="text;html=1;align=center;verticalAlign=middle;resizable=0;points=[];autosize=1;strokeColor=none;fillColor=none;" vertex="1" parent="1">
          <mxGeometry x="405" y="473" width="110" height="30" as="geometry" />
        </mxCell>
        <mxCell id="wBI8qY5ApIL9d-a7ffJJ-17" value="..." style="ellipse;whiteSpace=wrap;html=1;aspect=fixed;" vertex="1" parent="1">
          <mxGeometry x="120" y="470" width="80" height="80" as="geometry" />
        </mxCell>
        <mxCell id="wBI8qY5ApIL9d-a7ffJJ-19" value="Any other action..." style="text;html=1;align=center;verticalAlign=middle;resizable=0;points=[];autosize=1;strokeColor=none;fillColor=none;" vertex="1" parent="1">
          <mxGeometry x="200" y="473" width="120" height="30" as="geometry" />
        </mxCell>
      </root>
    </mxGraphModel>
  </diagram>
</mxfile>
